<svg width="28" height="28" viewBox="0 0 28 28" fill="none" xmlns="http://www.w3.org/2000/svg">
<path d="M13.9996 0C11.2307 5.27133e-05 8.52402 0.821183 6.22178 2.35955C3.91955 3.89793 2.12519 6.08444 1.06561 8.64261C0.00603032 11.2008 -0.271176 14.0157 0.269043 16.7314C0.809262 19.4471 2.14264 21.9417 4.10057 23.8996C6.0585 25.8575 8.55305 27.1908 11.2688 27.731C13.9845 28.2712 16.7994 27.9939 19.3575 26.9343C21.9156 25.8746 24.1021 24.0802 25.6404 21.778C27.1787 19.4757 27.9998 16.7689 27.9998 14C27.9956 10.2882 26.5192 6.72968 23.8945 4.10508C21.2699 1.48049 17.7114 0.00416194 13.9996 0ZM13.9996 27.0674C11.4152 27.0674 8.88889 26.301 6.74006 24.8651C4.59123 23.4292 2.91644 21.3884 1.92745 19.0007C0.938473 16.613 0.679724 13.9857 1.18393 11.4509C1.68813 8.91617 2.93264 6.58784 4.76009 4.76039C6.58753 2.93293 8.91584 1.6884 11.4506 1.1842C13.9853 0.679989 16.6126 0.93874 19.0003 1.92773C21.388 2.91672 23.4288 4.59153 24.8647 6.74037C26.3005 8.88921 27.0669 11.4156 27.067 14C27.063 17.4645 25.685 20.7859 23.2352 23.2356C20.7855 25.6853 17.4641 27.0635 13.9996 27.0674Z" fill="#78C081"/>
<path d="M13.9996 27.0674C11.4152 27.0674 8.88889 26.301 6.74006 24.8651C4.59123 23.4292 2.91644 21.3884 1.92745 19.0007C0.938473 16.613 0.679724 13.9857 1.18393 11.4509C1.68813 8.91617 2.93264 6.58784 4.76009 4.76039C6.58753 2.93293 8.91584 1.6884 11.4506 1.1842C13.9853 0.679989 16.6126 0.93874 19.0003 1.92773C21.388 2.91672 23.4288 4.59153 24.8647 6.74037C26.3005 8.88921 27.0669 11.4156 27.067 14C27.063 17.4645 25.685 20.7859 23.2352 23.2356C20.7855 25.6853 17.4641 27.0635 13.9996 27.0674Z" fill="#78C081"/>
<path d="M5.15458 19.8285C3.57366 17.7851 2.81557 15.2712 3.01769 12.7425C3.2198 10.2138 4.36875 7.83756 6.25633 6.04434C8.14391 4.25111 10.6452 3.15957 13.307 2.96752C15.9688 2.77546 18.615 3.4956 20.766 4.99743L5.15458 19.8285Z" fill="white"/>
<path fill-rule="evenodd" clip-rule="evenodd" d="M21.9993 4.92778C21.9958 4.86252 21.9779 4.79869 21.9468 4.7404C21.9157 4.68212 21.8721 4.63069 21.8187 4.58944C19.4859 2.78616 16.5319 1.86891 13.5284 2.01514C10.5248 2.16136 7.685 3.36066 5.55843 5.38103C3.43186 7.40141 2.16961 10.0993 2.01589 12.9527C1.86217 15.8061 2.8279 18.6122 4.72624 20.8283C4.76963 20.879 4.82375 20.9206 4.8851 20.9502C4.94646 20.9798 5.01367 20.9968 5.08239 21.0001H5.10739C5.17193 21.0001 5.23583 20.988 5.29545 20.9645C5.35507 20.9411 5.40923 20.9066 5.45483 20.8633L21.8558 5.28267C21.9046 5.2364 21.9426 5.18088 21.9673 5.11974C21.992 5.0586 22.0029 4.99319 21.9993 4.92778ZM3.01769 12.7425C2.81557 15.2712 3.57366 17.7851 5.15458 19.8285L20.766 4.99743C18.615 3.4956 15.9688 2.77546 13.307 2.96752C10.6452 3.15957 8.14391 4.25111 6.25633 6.04434C4.36875 7.83756 3.2198 10.2138 3.01769 12.7425Z" fill="white"/>
<path d="M13.7449 25.0582C11.4181 25.0656 9.14731 24.3804 7.25149 23.0988L22.9446 8.19006C24.2939 9.99057 25.0156 12.1474 25.0085 14.3575C25.0051 17.1946 23.8173 19.9144 21.7057 21.9205C19.5941 23.9266 16.7311 25.055 13.7449 25.0582Z" fill="white"/>
<path fill-rule="evenodd" clip-rule="evenodd" d="M23.3905 7.18009C23.3472 7.12769 23.2927 7.08459 23.2306 7.05365C23.1685 7.02271 23.1001 7.00463 23.0301 7.00059C22.9602 6.99729 22.8904 7.00778 22.8249 7.0314C22.7595 7.05502 22.7 7.09127 22.65 7.13784L6.14532 22.8176C6.09571 22.8647 6.05718 22.9212 6.03229 22.9835C6.00739 23.0457 5.99669 23.1123 6.00089 23.1788C6.0051 23.2453 6.02411 23.3102 6.05667 23.3692C6.08924 23.4282 6.13461 23.4799 6.1898 23.521C8.34103 25.1345 11.004 26.0083 13.7449 26.0001C16.994 25.9966 20.109 24.7689 22.4065 22.5862C24.7039 20.4036 25.9963 17.4443 25.9999 14.3575C26.0085 11.7537 25.0888 9.22384 23.3905 7.18009ZM7.25149 23.0988C9.14731 24.3804 11.4181 25.0656 13.7449 25.0582C16.7311 25.055 19.5941 23.9266 21.7057 21.9205C23.8173 19.9144 25.0051 17.1946 25.0085 14.3575C25.0156 12.1474 24.2939 9.99057 22.9446 8.19006L7.25149 23.0988Z" fill="white"/>
<path d="M12 8.21055C12 8.44998 12.071 8.68403 12.204 8.8831C12.337 9.08218 12.5261 9.23734 12.7473 9.32896C12.9685 9.42058 13.2119 9.44456 13.4467 9.39785C13.6815 9.35114 13.8972 9.23584 14.0665 9.06654C14.2358 8.89725 14.3511 8.68155 14.3978 8.44672C14.4445 8.2119 14.4206 7.96849 14.3289 7.7473C14.2373 7.5261 14.0822 7.33703 13.8831 7.20402C13.684 7.071 13.45 7 13.2105 7C12.8896 7.00035 12.5819 7.12801 12.355 7.35495C12.128 7.5819 12.0004 7.8896 12 8.21055ZM13.488 8.21055C13.488 8.26548 13.4717 8.31918 13.4412 8.36485C13.4107 8.41052 13.3673 8.44611 13.3166 8.46713C13.2658 8.48815 13.21 8.49365 13.1561 8.48294C13.1022 8.47222 13.0527 8.44577 13.0139 8.40693C12.9751 8.36809 12.9486 8.31861 12.9379 8.26473C12.9272 8.21086 12.9327 8.15502 12.9537 8.10428C12.9747 8.05353 13.0103 8.01016 13.056 7.97964C13.1017 7.94912 13.1554 7.93284 13.2103 7.93284C13.2839 7.93291 13.3545 7.96219 13.4066 8.01426C13.4586 8.06632 13.4879 8.13692 13.488 8.21055Z" fill="#78C081"/>
<path d="M22.2105 13C21.9711 13 21.7371 13.071 21.538 13.204C21.3389 13.337 21.1838 13.5261 21.0921 13.7473C21.0005 13.9685 20.9766 14.2119 21.0233 14.4467C21.07 14.6815 21.1853 14.8972 21.3546 15.0665C21.5239 15.2358 21.7396 15.3511 21.9744 15.3978C22.2092 15.4446 22.4526 15.4206 22.6738 15.329C22.895 15.2373 23.0841 15.0822 23.2171 14.8831C23.3501 14.684 23.4211 14.45 23.4211 14.2106C23.4208 13.8896 23.2932 13.5818 23.0662 13.3549C22.8393 13.1279 22.5315 13.0003 22.2105 13ZM22.2105 14.488C22.1556 14.488 22.1019 14.4717 22.0562 14.4412C22.0106 14.4107 21.975 14.3673 21.9539 14.3165C21.9329 14.2657 21.9274 14.2099 21.9382 14.156C21.9489 14.1021 21.9754 14.0526 22.0143 14.0138C22.0531 13.975 22.1026 13.9486 22.1565 13.9379C22.2104 13.9272 22.2663 13.9327 22.317 13.9538C22.3677 13.9748 22.4111 14.0105 22.4416 14.0562C22.4721 14.1019 22.4883 14.1556 22.4883 14.2106C22.4882 14.2842 22.4589 14.3547 22.4068 14.4068C22.3548 14.4588 22.2842 14.488 22.2105 14.488Z" fill="#78C081"/>
<path d="M6.5 9C6.00555 9 5.5222 9.14662 5.11108 9.42133C4.69995 9.69604 4.37952 10.0865 4.1903 10.5433C4.00108 11.0001 3.95157 11.5028 4.04804 11.9877C4.1445 12.4727 4.3826 12.9182 4.73223 13.2678C5.08187 13.6174 5.52732 13.8555 6.01227 13.952C6.49723 14.0485 6.99989 13.999 7.45671 13.8097C7.91352 13.6205 8.30397 13.3001 8.57867 12.889C8.85338 12.4778 9 11.9945 9 11.5C8.99927 10.8372 8.73565 10.2017 8.26696 9.73304C7.79828 9.26435 7.16282 9.00073 6.5 9ZM6.5 12.6275C6.27701 12.6275 6.05903 12.5614 5.87362 12.4375C5.68821 12.3136 5.54371 12.1375 5.45837 11.9315C5.37304 11.7255 5.35071 11.4988 5.39421 11.2801C5.43772 11.0614 5.5451 10.8605 5.70277 10.7028C5.86045 10.5451 6.06134 10.4377 6.28005 10.3942C6.49875 10.3507 6.72544 10.373 6.93146 10.4584C7.13747 10.5437 7.31356 10.6882 7.43744 10.8736C7.56133 11.059 7.62745 11.277 7.62745 11.5C7.62714 11.7989 7.50826 12.0855 7.29688 12.2969C7.08551 12.5083 6.79892 12.6272 6.5 12.6275Z" fill="#78C081"/>
<path d="M20.6396 20.0743L20.3982 19.9903C20.5555 19.4802 20.531 18.9327 20.329 18.4381C20.127 17.9435 19.7594 17.5313 19.2868 17.2694L19.3927 16.7642C19.4216 16.6263 19.3937 16.4828 19.3149 16.3652C19.2361 16.2477 19.113 16.1656 18.9727 16.1372C18.8323 16.1088 18.6863 16.1363 18.5666 16.2136C18.4469 16.291 18.3633 16.4119 18.3344 16.5498L18.2906 16.7593C18.0678 16.4576 17.7569 16.2296 17.3992 16.1053C17.0415 15.981 16.6538 15.9664 16.2874 16.0634C15.921 16.1604 15.5933 16.3644 15.3476 16.6485C15.1019 16.9325 14.9499 17.2831 14.9116 17.654C14.8539 17.6755 14.8011 17.7055 14.7455 17.731L14.4136 17.348C14.3202 17.2419 14.1878 17.1765 14.0453 17.166C13.9029 17.1556 13.7621 17.2009 13.6536 17.2922C13.5452 17.3835 13.4779 17.5132 13.4666 17.6531C13.4552 17.7929 13.5007 17.9315 13.5931 18.0385L13.8866 18.3754C13.5817 18.7242 13.3815 19.1494 13.3082 19.6035C13.2348 20.0575 13.2914 20.5227 13.4714 20.9471L13.2161 21.1351C13.1015 21.2195 13.0257 21.3453 13.0054 21.4846C12.9852 21.6239 13.0221 21.7655 13.1081 21.8781C13.194 21.9907 13.322 22.0651 13.4639 22.085C13.6057 22.1049 13.7498 22.0687 13.8644 21.9842L14.0904 21.8177C14.4275 22.1284 14.8446 22.3426 15.2967 22.4372C15.7488 22.5318 16.2186 22.5032 16.6553 22.3545L16.7226 22.605C16.7592 22.7411 16.8494 22.8573 16.9733 22.9281C17.0971 22.9989 17.2445 23.0184 17.3831 22.9824C17.5216 22.9464 17.6399 22.8578 17.712 22.7362C17.784 22.6145 17.8039 22.4697 17.7673 22.3336L17.6129 21.7638C17.6565 21.7213 17.7006 21.6794 17.741 21.6333C17.8627 21.6523 17.9856 21.6618 18.1087 21.6619C18.4342 21.6617 18.7563 21.5961 19.055 21.4691C19.3537 21.342 19.6228 21.1562 19.8456 20.9231L20.2794 21.0747C20.3462 21.098 20.4171 21.1081 20.488 21.1044C20.5589 21.1008 20.6283 21.0834 20.6924 21.0534C20.7564 21.0234 20.8138 20.9813 20.8613 20.9295C20.9087 20.8777 20.9454 20.8172 20.969 20.7515C20.9927 20.6858 21.003 20.6161 20.9993 20.5465C20.9955 20.4769 20.9779 20.4087 20.9473 20.3458C20.9168 20.2829 20.8739 20.2265 20.8211 20.1798C20.7684 20.1332 20.7068 20.0972 20.6399 20.074L20.6396 20.0743ZM18.1081 20.601C17.9667 20.6007 17.8263 20.5778 17.6923 20.5334C17.5774 20.4954 17.4528 20.4965 17.3386 20.5366C17.2244 20.5768 17.1274 20.6535 17.0631 20.7545C16.964 20.9099 16.8359 21.0455 16.6855 21.1542C16.6815 21.1572 16.6766 21.1594 16.6726 21.1624C16.4938 21.2879 16.2886 21.3723 16.0721 21.4094C15.8556 21.4465 15.6334 21.4352 15.422 21.3765C15.2105 21.3178 15.0152 21.2132 14.8505 21.0703C14.6858 20.9274 14.556 20.7499 14.4705 20.551C14.3851 20.3522 14.3463 20.137 14.357 19.9214C14.3677 19.7058 14.4277 19.4953 14.5324 19.3055C14.6371 19.1158 14.784 18.9516 14.9621 18.8251C15.1401 18.6987 15.3449 18.6132 15.5612 18.575C15.7004 18.5502 15.8241 18.4728 15.9059 18.3594C15.9877 18.246 16.021 18.1057 15.9986 17.9684C15.9652 17.7715 16.0102 17.5694 16.1242 17.4041C16.2383 17.2388 16.4126 17.1228 16.6113 17.0803C16.8099 17.0377 17.0176 17.0718 17.1913 17.1755C17.3651 17.2792 17.4916 17.4445 17.5447 17.6373C17.5763 17.749 17.6444 17.8475 17.7383 17.9176C17.8323 17.9878 17.9471 18.0258 18.0652 18.0258C18.0748 18.0258 18.0961 18.0258 18.118 18.0236C18.466 18.0247 18.7993 18.1615 19.0445 18.404C19.2898 18.6465 19.427 18.9748 19.4259 19.3166C19.4248 19.6584 19.2855 19.9858 19.0386 20.2267C18.7918 20.4677 18.4576 20.6024 18.1097 20.6014L18.1081 20.601Z" fill="#78C081"/>
</svg>
