<svg width="41" height="21" viewBox="0 0 41 21" fill="none" xmlns="http://www.w3.org/2000/svg">
<g opacity="0.85">
<path d="M39.9433 7.09787C40.321 7.20386 40.6781 7.37186 41 7.59492C39.4983 5.42724 32.5464 0.111582 21.0756 0.0011265C7.81126 -0.109329 2.29139 7.92629 3.87644 13.808C3.90333 13.9546 3.94526 14.098 4.00158 14.236C29.6961 1.80983 39.9433 7.09787 39.9433 7.09787Z" fill="url(#paint0_linear_86_185)"/>
<path d="M24.7186 14.9954C34.9658 6.62839 40.6247 7.52584 40.9862 7.59487C40.6643 7.37181 40.3072 7.20381 39.9295 7.09782C39.9295 7.09782 29.6962 1.80978 4.01558 14.2912C5.93433 20.5596 13.1088 24.4531 24.7186 14.9954Z" fill="url(#paint1_linear_86_185)"/>
<path d="M12.6915 3.27334L12.2744 3.5771L11.8295 3.96369L11.5514 4.19841L11.2594 4.47454L10.9535 4.77829L10.6337 5.12347C10.4113 5.35818 10.1888 5.62052 9.98027 5.88285C9.77171 6.14518 9.54925 6.44893 9.34069 6.75268C9.13213 7.05643 9.13213 7.05643 9.0348 7.20831C8.93747 7.36018 8.82624 7.52587 8.74282 7.67774C8.65939 7.82962 8.3674 8.32667 8.20056 8.64423C8.03371 8.96179 7.88077 9.30696 7.74173 9.61071C7.60269 9.91446 7.46365 10.2458 7.35242 10.5358C7.24119 10.8257 7.14386 11.1295 7.06043 11.3918C6.87968 11.9165 6.76846 12.3583 6.68503 12.6758C6.66503 12.7972 6.63716 12.9171 6.60161 13.0348V13.1591C6.58686 13.2433 6.53902 13.3183 6.46862 13.3675C6.39821 13.4167 6.31101 13.4361 6.2262 13.4214C6.14139 13.4068 6.06591 13.3593 6.01637 13.2894C5.96682 13.2194 5.94728 13.1329 5.96203 13.0486V12.9106C5.96203 12.8139 5.96203 12.6897 6.05935 12.524C6.15668 12.3583 6.29572 11.7508 6.49037 11.1433L6.83797 10.2873C6.96311 9.99731 7.11605 9.67975 7.269 9.36219C7.42194 9.04463 7.60269 8.71326 7.78344 8.3957C7.96419 8.07814 8.17275 7.74678 8.38131 7.42922C8.58987 7.11166 8.58987 7.11166 8.7011 6.94598L9.0348 6.50416C9.25726 6.20041 9.49362 5.91046 9.71609 5.64813C9.93855 5.3858 10.1888 5.12347 10.4113 4.88875L10.7589 4.55738L11.0926 4.26744L11.3985 4.00511L11.6765 3.77039L12.1632 3.3976L12.5803 3.10766H12.6776C12.6998 3.10583 12.7217 3.1128 12.7387 3.12704C12.7556 3.14128 12.7662 3.16163 12.768 3.1836C12.7699 3.20557 12.7628 3.22736 12.7485 3.24419C12.7341 3.26103 12.7137 3.27151 12.6915 3.27334Z" fill="url(#paint2_linear_86_185)"/>
<path d="M17.5784 3.26217L17.1817 3.49391L16.7586 3.78886L16.4942 3.96793L16.2166 4.1786L15.9257 4.41035L15.6216 4.67369C15.4101 4.85277 15.1986 5.05291 15.0002 5.25305C14.8019 5.45319 14.5904 5.68493 14.3921 5.91668C14.1938 6.14842 14.1938 6.14842 14.1012 6.26429C14.0087 6.38016 13.9029 6.50656 13.8236 6.62244C13.7442 6.73831 13.4666 7.11752 13.3079 7.3598C13.1493 7.60208 13.0039 7.86542 12.8716 8.09716C12.7394 8.32891 12.6072 8.58171 12.5015 8.80292C12.3957 9.02413 12.3031 9.25588 12.2238 9.45602C12.0519 9.8563 11.9462 10.1934 11.8668 10.4357C11.8478 10.5282 11.8213 10.6197 11.7875 10.7095V10.8043C11.7735 10.8686 11.728 10.9258 11.6611 10.9633C11.5941 11.0008 11.5112 11.0157 11.4305 11.0045C11.3499 10.9933 11.2781 10.9571 11.231 10.9037C11.1839 10.8504 11.1653 10.7843 11.1793 10.7201V10.6147C11.1793 10.541 11.1793 10.4462 11.2719 10.3198C11.3644 10.1934 11.4966 9.7299 11.6817 9.26641L12.0123 8.61332C12.1313 8.39211 12.2767 8.14983 12.4221 7.90755C12.5676 7.66528 12.7394 7.41247 12.9113 7.17019C13.0832 6.92791 13.2815 6.6751 13.4798 6.43283C13.6781 6.19055 13.6781 6.19055 13.7839 6.06415L14.1012 5.72707C14.3127 5.49533 14.5375 5.27412 14.749 5.07398C14.9606 4.87383 15.1986 4.67369 15.4101 4.49462L15.7406 4.24181L16.0579 4.0206L16.3488 3.82046L16.6132 3.64138L17.076 3.35697L17.4726 3.13576H17.5651C17.5862 3.13437 17.6071 3.13969 17.6232 3.15055C17.6393 3.16142 17.6493 3.17694 17.6511 3.1937C17.6528 3.21046 17.6462 3.22709 17.6325 3.23993C17.6189 3.25277 17.5994 3.26077 17.5784 3.26217Z" fill="url(#paint3_linear_86_185)"/>
<path d="M19.4349 8.02291L19.5183 7.94007L19.7686 7.70535L20.144 7.36018L20.6584 6.91836C20.8531 6.76648 21.0477 6.58699 21.2702 6.42131L21.9793 5.88284L22.7579 5.34437L23.5783 4.81971C23.8702 4.65402 24.1483 4.47454 24.4264 4.33647L24.8574 4.10175L25.2745 3.90845L25.6778 3.71515L26.081 3.54947C26.3212 3.43969 26.5672 3.3429 26.8179 3.25953L27.4297 3.05242L27.9302 2.92816L28.3612 2.81771V2.94197L27.9441 3.08004L27.4575 3.23192L26.8457 3.46663C26.6093 3.54947 26.3869 3.67373 26.1227 3.78419L25.7473 3.96368L25.358 4.18459L24.9548 4.3917L24.5515 4.64022C24.2735 4.7921 24.0093 4.98539 23.7312 5.15107L22.9526 5.71716L22.2157 6.28324C21.9932 6.47654 21.7568 6.65603 21.5622 6.83552L20.9782 7.36018C20.7975 7.51205 20.6445 7.67774 20.5055 7.802L20.144 8.16098L19.9354 8.3957L19.852 8.47854C19.8222 8.50902 19.7865 8.53325 19.7471 8.54979C19.7077 8.56634 19.6654 8.57487 19.6226 8.57487C19.5798 8.57487 19.5375 8.56634 19.4981 8.54979C19.4586 8.53325 19.423 8.50902 19.3932 8.47854C19.3375 8.41555 19.3067 8.33457 19.3067 8.25072C19.3067 8.16688 19.3375 8.0859 19.3932 8.02291H19.4349Z" fill="url(#paint4_linear_86_185)"/>
<path d="M15.2571 9.13198L15.3109 9.03581L15.4755 8.76081L15.7237 8.35505L16.0704 7.82952C16.2048 7.64563 16.3334 7.43474 16.4887 7.2323L16.9815 6.57689L17.5336 5.90884L18.1243 5.24672C18.339 5.03165 18.5389 4.8056 18.7475 4.62005L19.0665 4.31221L19.3823 4.04739L19.6862 3.7851L19.996 3.54982C20.1781 3.39882 20.368 3.25948 20.5647 3.13239L21.044 2.8187L21.4456 2.60624L21.7907 2.41991L21.8168 2.54142L21.4894 2.75223L21.1055 2.98917L20.632 3.32986C20.4475 3.45382 20.2835 3.61576 20.081 3.77177L19.7979 4.0155L19.5117 4.30227L19.2106 4.57806L18.9183 4.89436C18.7126 5.0934 18.5275 5.33043 18.3247 5.54298L17.7783 6.23802L17.2676 6.92549C17.1182 7.15494 16.9539 7.37341 16.8253 7.5843L16.4366 8.20347C16.314 8.38483 16.2182 8.57464 16.1255 8.72142L15.892 9.13816L15.7632 9.40558L15.7093 9.50175C15.6902 9.53697 15.6648 9.56715 15.6346 9.59049C15.6045 9.61383 15.5701 9.62986 15.5335 9.63763C15.4969 9.64541 15.459 9.64477 15.4218 9.63575C15.3846 9.62673 15.3491 9.60951 15.3172 9.58512C15.2563 9.53365 15.2131 9.46004 15.1954 9.37805C15.1778 9.29606 15.187 9.21128 15.2214 9.13956L15.2571 9.13198Z" fill="url(#paint5_linear_86_185)"/>
<path d="M32.143 4.15699H31.8093H31.4339L30.9473 4.22603L30.3772 4.3641C30.1647 4.42078 29.9558 4.48994 29.7516 4.5712L29.0981 4.81972L28.4307 5.12348C27.6197 5.49791 26.8305 5.91738 26.067 6.37991C25.7472 6.5594 25.497 6.72508 25.3162 6.83554L25.0381 7.01502C24.9642 7.06209 24.8746 7.07835 24.7887 7.06026C24.7028 7.04216 24.6276 6.99119 24.5793 6.91837C24.5562 6.88311 24.5403 6.84363 24.5327 6.80224C24.5251 6.76084 24.5258 6.71836 24.5349 6.67725C24.5439 6.63614 24.5611 6.59723 24.5855 6.56277C24.6098 6.52832 24.6408 6.49901 24.6766 6.47655L24.9825 6.31087L25.775 5.88286C26.4424 5.55149 27.3323 5.12348 28.2638 4.7645L28.959 4.50217L29.6403 4.29507L30.2938 4.12938C30.4909 4.08176 30.6905 4.04489 30.8917 4.01893H31.4061C31.5404 4.01199 31.675 4.01199 31.8093 4.01893H32.0596H32.143V4.15699Z" fill="url(#paint6_linear_86_185)"/>
<path d="M6.47638 12.8554L6.86569 13.2006L7.9641 14.098C9.0685 14.9578 10.2401 15.7288 11.4679 16.4038C11.8016 16.5971 12.1353 16.7628 12.469 16.9285L12.9834 17.1632L13.484 17.3841C13.8177 17.5083 14.1374 17.6326 14.4572 17.7293L15.3332 17.9778L15.7364 18.0744H16.1118H16.4316H16.7097H17.0851H17.238V18.1987H16.4316H16.0979H15.7225L15.3054 18.1158C15.0273 18.1158 14.7075 17.9916 14.3877 17.8949C14.0679 17.7983 13.7342 17.7016 13.3866 17.5774L12.8722 17.3841L12.3438 17.177C11.9962 17.0113 11.6347 16.8594 11.2871 16.6799C10.0171 16.0383 8.79915 15.2997 7.64431 14.4708C7.17157 14.1395 6.78226 13.8357 6.51809 13.6286L6.2122 13.3801L6.10097 13.2972C6.0423 13.2357 6.0096 13.1542 6.0096 13.0694C6.0096 12.9847 6.0423 12.9032 6.10097 12.8416C6.12956 12.8115 6.16404 12.7876 6.2023 12.7712C6.24055 12.7548 6.28177 12.7463 6.32343 12.7463C6.36509 12.7463 6.40631 12.7548 6.44457 12.7712C6.48282 12.7876 6.5173 12.8115 6.5459 12.8416L6.47638 12.8554Z" fill="url(#paint7_linear_86_185)"/>
<path d="M10.2025 11.4055L10.5918 11.6816C10.8421 11.8611 11.2036 12.1096 11.6485 12.3858C12.7287 13.0952 13.8474 13.7451 14.9994 14.3325C15.3053 14.4982 15.6251 14.6501 15.9448 14.7882L16.8764 15.1886C17.1823 15.3128 17.4882 15.4233 17.7663 15.5061L18.1834 15.6304L18.5866 15.7409C18.8192 15.8042 19.0562 15.8503 19.2957 15.8789H19.5877H20.3246H20.1995C20.0791 15.886 19.9583 15.886 19.838 15.8789H19.5738H19.2679C19.0454 15.8789 18.8091 15.8789 18.5449 15.7685L18.1278 15.6718L17.6967 15.7409C17.3859 15.666 17.0795 15.5738 16.7791 15.4647L15.8058 15.1057L14.8325 14.6777C13.6412 14.1388 12.4808 13.535 11.3565 12.869L10.2442 12.1925L9.82711 11.9301C9.75983 11.8804 9.71388 11.8073 9.69842 11.7254C9.68296 11.6436 9.69912 11.5589 9.74369 11.4883C9.76144 11.4481 9.78739 11.412 9.81991 11.3823C9.85243 11.3525 9.89081 11.3298 9.93262 11.3155C9.97443 11.3012 10.0188 11.2957 10.0628 11.2993C10.1069 11.3029 10.1497 11.3156 10.1886 11.3365L10.2025 11.4055Z" fill="url(#paint8_linear_86_185)"/>
<path d="M14.9161 9.66587L15.2637 9.94201L16.2231 10.66C16.6263 10.9499 17.1129 11.2675 17.6135 11.5988L18.4199 12.0959L19.2819 12.5791L19.7269 12.8138L20.1718 13.021L21.0477 13.3937L21.4788 13.5456L21.8959 13.6837H22.0905H22.2852H22.4798H22.6606H22.8413H23.0082H23.328H23.8563C23.9674 13.6918 24.0789 13.6918 24.19 13.6837H24.3013C24.3212 13.6834 24.3405 13.6902 24.3558 13.7029C24.3711 13.7155 24.3814 13.7332 24.3847 13.7527H24.2734H23.9259H23.2585H22.9387H22.7579H22.5772H22.3825H22.1879H21.9793H21.7707L21.3397 13.6285L20.8948 13.4904C20.5889 13.3937 20.283 13.2695 19.9771 13.1452L19.5183 12.9519L19.0873 12.9243L18.1835 12.4825L17.3354 12.013C16.7792 11.6955 16.2787 11.3917 15.8477 11.1156C15.4166 10.8395 15.0829 10.6047 14.8327 10.4391L14.4573 10.1629C14.3893 10.1133 14.3439 10.039 14.3309 9.95622C14.3179 9.87347 14.3383 9.78897 14.3877 9.7211C14.4512 9.66576 14.5327 9.63524 14.6172 9.63524C14.7016 9.63524 14.7831 9.66576 14.8466 9.7211L14.9161 9.66587Z" fill="url(#paint9_linear_86_185)"/>
<path d="M19.8939 8.00907H19.9635L20.1581 8.18857C20.3389 8.35425 20.603 8.56135 20.9367 8.80987L21.4929 9.16886C21.6991 9.30879 21.9126 9.43784 22.1325 9.55545L22.8416 9.91443L23.6063 10.2182L23.9956 10.3562L24.3849 10.4805C24.6491 10.4805 24.9133 10.6186 25.1635 10.66L25.9004 10.7843H26.248H27.1518H27.5828H27.9721V10.8533H27.5828H27.1379H26.5539H25.8726L25.1079 10.7705C24.8437 10.7705 24.5657 10.6876 24.2876 10.6324L23.8705 10.5219L23.4672 10.4115C23.1934 10.3293 22.9242 10.2325 22.6608 10.1215L21.8683 10.0525C21.6319 9.92823 21.3956 9.81778 21.187 9.69352L20.5891 9.33454C20.2919 9.15111 20.0042 8.95296 19.7271 8.74084L19.5324 8.57516H19.449C19.3845 8.5184 19.3453 8.43851 19.3401 8.35306C19.3349 8.26762 19.364 8.18361 19.4212 8.11953C19.4784 8.05545 19.5588 8.01654 19.6449 8.01136C19.7309 8.00618 19.8155 8.03516 19.88 8.09192L19.8939 8.00907Z" fill="url(#paint10_linear_86_185)"/>
<path d="M25.0798 6.64206L25.344 6.75252L26.067 7.04246C26.6648 7.27718 27.4574 7.56713 28.2916 7.84327C29.0336 8.09228 29.7905 8.29518 30.558 8.45077H30.989H31.3227H31.6008C31.6069 8.46126 31.6101 8.47317 31.6101 8.48529C31.6101 8.49741 31.6069 8.50931 31.6008 8.5198H31.3227C31.2073 8.53424 31.0905 8.53424 30.9751 8.5198H30.5302C29.737 8.42335 28.9518 8.27109 28.1804 8.06418C27.3461 7.85707 26.5119 7.62235 25.8862 7.42906L25.1354 7.19434L24.8573 7.1115C24.8155 7.09909 24.7766 7.07829 24.7431 7.05037C24.7097 7.02246 24.6823 6.98804 24.6628 6.94922C24.6432 6.91041 24.6319 6.86803 24.6295 6.8247C24.6271 6.78137 24.6337 6.73801 24.6488 6.69729C24.6614 6.65731 24.6819 6.62022 24.7091 6.58813C24.7362 6.55605 24.7695 6.52962 24.807 6.51037C24.8444 6.49112 24.8854 6.47942 24.9275 6.47596C24.9695 6.4725 25.0118 6.47733 25.052 6.49019L25.0798 6.64206Z" fill="url(#paint11_linear_86_185)"/>
<path d="M39.8599 7.19445H39.7625L39.4427 7.07019C39.0374 6.9275 38.6242 6.80766 38.2053 6.71121C37.663 6.58695 36.9956 6.47649 36.217 6.37984C35.4384 6.28319 34.5625 6.24177 33.6031 6.22797H32.8801H32.1154H31.3228H30.5164L29.6822 6.31081L28.8201 6.5041H28.3891L27.9442 6.57314L27.0682 6.6974L26.1784 6.86308L25.2746 7.04257L24.357 7.23587L23.8981 7.33252L23.4393 7.44297L22.5216 7.67769L21.5901 7.91241L20.6724 8.17474L19.7548 8.45088L18.8371 8.72702L17.9194 9.03077L17.0157 9.32071L16.1119 9.63827C14.9301 10.0663 13.7761 10.5219 12.6498 10.9499L11.0231 11.6403L10.6199 11.806L10.2306 11.9716L9.46584 12.3168L8.72893 12.6482L8.00593 12.9657C7.53319 13.1866 7.08827 13.4076 6.61553 13.6009L5.97595 13.9046L5.37808 14.2084L4.26577 14.7606L3.29249 15.2439L2.45826 15.6719L1.01224 16.5417C0.861055 16.6205 0.684562 16.6363 0.521594 16.5858C0.358625 16.5353 0.222531 16.4226 0.143248 16.2725C0.0639657 16.1224 0.0479922 15.9471 0.0988383 15.7853C0.149684 15.6234 0.263185 15.4883 0.414375 15.4096L2.01333 14.6364L2.84756 14.2222L3.84865 13.7527L4.98877 13.2143L5.60054 12.9381L6.25403 12.6482L7.64443 12.0407L8.38133 11.7231L9.13215 11.4056L9.91077 11.088L10.314 10.9223L10.7172 10.7704L12.3857 10.1215C13.5258 9.70731 14.7076 9.26549 15.9173 8.87889C16.2232 8.78225 16.5151 8.67179 16.8349 8.58895L17.697 8.299L18.6285 8.02286L19.5601 7.76053L20.4917 7.4982L21.4371 7.27729L22.3826 7.04257L23.3142 6.83547L23.7869 6.73882L24.2457 6.65598L25.1773 6.47649C25.4832 6.47649 25.7891 6.36603 26.095 6.32461L26.9987 6.18655L27.9025 6.06228H28.3474H28.7784L29.6405 5.97944H30.4886H31.3089H32.1154H32.894H33.6309C34.5193 6.00013 35.4058 6.06927 36.2865 6.18655C36.9604 6.27978 37.6288 6.40883 38.2887 6.57314C38.7171 6.68483 39.1395 6.81848 39.554 6.97354L39.8877 7.11161H39.9989C40.0207 7.13238 40.0351 7.15966 40.0399 7.1893C40.0448 7.21895 40.0397 7.24934 40.0256 7.27588C40.0114 7.30241 39.9889 7.32364 39.9615 7.33636C39.9342 7.34907 39.9033 7.35257 39.8738 7.34633L39.8599 7.19445Z" fill="url(#paint12_linear_86_185)"/>
<path d="M21.0894 0.00114594C7.96411 -0.109309 2.40254 7.78824 3.79293 13.7114L2.79185 14.1808L1.95761 14.595L0.344755 15.4787C0.193565 15.5574 0.0800591 15.6926 0.0292129 15.8544C-0.0216332 16.0162 -0.00565436 16.1915 0.0736281 16.3416C0.152911 16.4918 0.289005 16.6045 0.451974 16.655C0.614942 16.7054 0.791435 16.6896 0.942625 16.6109L2.49986 15.7962L3.3341 15.3682L4.21005 14.9264C6.39297 20.8496 13.4701 24.2323 24.7184 15.0645C34.9656 6.69749 40.6245 7.59494 40.986 7.66398C39.5122 5.42726 32.5602 0.111601 21.0894 0.00114594Z" fill="url(#paint13_radial_86_185)" style="mix-blend-mode:screen"/>
</g>
<defs>
<linearGradient id="paint0_linear_86_185" x1="15.8523" y1="8.14532" x2="-2.46401" y2="15.0347" gradientUnits="userSpaceOnUse">
<stop offset="0.08" stop-color="#B0E355"/>
<stop offset="0.21" stop-color="#ADE152"/>
<stop offset="0.32" stop-color="#A2DA4A"/>
<stop offset="0.42" stop-color="#91CE3B"/>
<stop offset="0.52" stop-color="#79BE27"/>
<stop offset="0.61" stop-color="#5AA90D"/>
<stop offset="0.65" stop-color="#4A9F00"/>
<stop offset="1" stop-color="#346D0A"/>
</linearGradient>
<linearGradient id="paint1_linear_86_185" x1="35.642" y1="20.312" x2="-16.5294" y2="24.9761" gradientUnits="userSpaceOnUse">
<stop offset="0.08" stop-color="#B0E355"/>
<stop offset="0.21" stop-color="#ADE152"/>
<stop offset="0.32" stop-color="#A2DA4A"/>
<stop offset="0.42" stop-color="#91CE3B"/>
<stop offset="0.52" stop-color="#79BE27"/>
<stop offset="0.61" stop-color="#5AA90D"/>
<stop offset="0.65" stop-color="#4A9F00"/>
<stop offset="1" stop-color="#346D0A"/>
</linearGradient>
<linearGradient id="paint2_linear_86_185" x1="29.2054" y1="21.4152" x2="-4.78753" y2="25.352" gradientUnits="userSpaceOnUse">
<stop offset="0.08" stop-color="#B0E355"/>
<stop offset="0.21" stop-color="#ADE152"/>
<stop offset="0.32" stop-color="#A2DA4A"/>
<stop offset="0.42" stop-color="#91CE3B"/>
<stop offset="0.52" stop-color="#79BE27"/>
<stop offset="0.61" stop-color="#5AA90D"/>
<stop offset="0.65" stop-color="#4A9F00"/>
<stop offset="1" stop-color="#346D0A"/>
</linearGradient>
<linearGradient id="paint3_linear_86_185" x1="33.2812" y1="17.1032" x2="1.19274" y2="21.735" gradientUnits="userSpaceOnUse">
<stop offset="0.08" stop-color="#B0E355"/>
<stop offset="0.21" stop-color="#ADE152"/>
<stop offset="0.32" stop-color="#A2DA4A"/>
<stop offset="0.42" stop-color="#91CE3B"/>
<stop offset="0.52" stop-color="#79BE27"/>
<stop offset="0.61" stop-color="#5AA90D"/>
<stop offset="0.65" stop-color="#4A9F00"/>
<stop offset="1" stop-color="#346D0A"/>
</linearGradient>
<linearGradient id="paint4_linear_86_185" x1="31.684" y1="-5.09487" x2="11.622" y2="10.4056" gradientUnits="userSpaceOnUse">
<stop offset="0.08" stop-color="#B0E355"/>
<stop offset="0.21" stop-color="#ADE152"/>
<stop offset="0.32" stop-color="#A2DA4A"/>
<stop offset="0.42" stop-color="#91CE3B"/>
<stop offset="0.52" stop-color="#79BE27"/>
<stop offset="0.61" stop-color="#5AA90D"/>
<stop offset="0.65" stop-color="#4A9F00"/>
<stop offset="1" stop-color="#346D0A"/>
</linearGradient>
<linearGradient id="paint5_linear_86_185" x1="22.9667" y1="-5.92155" x2="6.89731" y2="10.78" gradientUnits="userSpaceOnUse">
<stop offset="0.08" stop-color="#B0E355"/>
<stop offset="0.21" stop-color="#ADE152"/>
<stop offset="0.32" stop-color="#A2DA4A"/>
<stop offset="0.42" stop-color="#91CE3B"/>
<stop offset="0.52" stop-color="#79BE27"/>
<stop offset="0.61" stop-color="#5AA90D"/>
<stop offset="0.65" stop-color="#4A9F00"/>
<stop offset="1" stop-color="#346D0A"/>
</linearGradient>
<linearGradient id="paint6_linear_86_185" x1="41.7587" y1="-6.8841" x2="10.8858" y2="8.28946" gradientUnits="userSpaceOnUse">
<stop offset="0.08" stop-color="#B0E355"/>
<stop offset="0.21" stop-color="#ADE152"/>
<stop offset="0.32" stop-color="#A2DA4A"/>
<stop offset="0.42" stop-color="#91CE3B"/>
<stop offset="0.52" stop-color="#79BE27"/>
<stop offset="0.61" stop-color="#5AA90D"/>
<stop offset="0.65" stop-color="#4A9F00"/>
<stop offset="1" stop-color="#346D0A"/>
</linearGradient>
<linearGradient id="paint7_linear_86_185" x1="30.0566" y1="28.8484" x2="-3.92767" y2="32.783" gradientUnits="userSpaceOnUse">
<stop offset="0.08" stop-color="#B0E355"/>
<stop offset="0.21" stop-color="#ADE152"/>
<stop offset="0.32" stop-color="#A2DA4A"/>
<stop offset="0.42" stop-color="#91CE3B"/>
<stop offset="0.52" stop-color="#79BE27"/>
<stop offset="0.61" stop-color="#5AA90D"/>
<stop offset="0.65" stop-color="#4A9F00"/>
<stop offset="1" stop-color="#346D0A"/>
</linearGradient>
<linearGradient id="paint8_linear_86_185" x1="29.8956" y1="27.4331" x2="-5.01596" y2="25.3108" gradientUnits="userSpaceOnUse">
<stop offset="0.08" stop-color="#B0E355"/>
<stop offset="0.21" stop-color="#ADE152"/>
<stop offset="0.32" stop-color="#A2DA4A"/>
<stop offset="0.42" stop-color="#91CE3B"/>
<stop offset="0.52" stop-color="#79BE27"/>
<stop offset="0.61" stop-color="#5AA90D"/>
<stop offset="0.65" stop-color="#4A9F00"/>
<stop offset="1" stop-color="#346D0A"/>
</linearGradient>
<linearGradient id="paint9_linear_86_185" x1="29.741" y1="26.1124" x2="-0.668906" y2="15.9285" gradientUnits="userSpaceOnUse">
<stop offset="0.08" stop-color="#B0E355"/>
<stop offset="0.21" stop-color="#ADE152"/>
<stop offset="0.32" stop-color="#A2DA4A"/>
<stop offset="0.42" stop-color="#91CE3B"/>
<stop offset="0.52" stop-color="#79BE27"/>
<stop offset="0.61" stop-color="#5AA90D"/>
<stop offset="0.65" stop-color="#4A9F00"/>
<stop offset="1" stop-color="#346D0A"/>
</linearGradient>
<linearGradient id="paint10_linear_86_185" x1="29.5285" y1="24.2678" x2="7.59396" y2="17.7494" gradientUnits="userSpaceOnUse">
<stop offset="0.08" stop-color="#B0E355"/>
<stop offset="0.21" stop-color="#ADE152"/>
<stop offset="0.32" stop-color="#A2DA4A"/>
<stop offset="0.42" stop-color="#91CE3B"/>
<stop offset="0.52" stop-color="#79BE27"/>
<stop offset="0.61" stop-color="#5AA90D"/>
<stop offset="0.65" stop-color="#4A9F00"/>
<stop offset="1" stop-color="#346D0A"/>
</linearGradient>
<linearGradient id="paint11_linear_86_185" x1="35.2821" y1="20.6698" x2="13.7055" y2="15.254" gradientUnits="userSpaceOnUse">
<stop offset="0.08" stop-color="#B0E355"/>
<stop offset="0.21" stop-color="#ADE152"/>
<stop offset="0.32" stop-color="#A2DA4A"/>
<stop offset="0.42" stop-color="#91CE3B"/>
<stop offset="0.52" stop-color="#79BE27"/>
<stop offset="0.61" stop-color="#5AA90D"/>
<stop offset="0.65" stop-color="#4A9F00"/>
<stop offset="1" stop-color="#346D0A"/>
</linearGradient>
<linearGradient id="paint12_linear_86_185" x1="57.9502" y1="3.85125" x2="0.415718" y2="16.8887" gradientUnits="userSpaceOnUse">
<stop offset="0.08" stop-color="#B0E355"/>
<stop offset="0.21" stop-color="#ADE152"/>
<stop offset="0.32" stop-color="#A2DA4A"/>
<stop offset="0.42" stop-color="#91CE3B"/>
<stop offset="0.52" stop-color="#79BE27"/>
<stop offset="0.61" stop-color="#5AA90D"/>
<stop offset="0.65" stop-color="#4A9F00"/>
<stop offset="1" stop-color="#346D0A"/>
</linearGradient>
<radialGradient id="paint13_radial_86_185" cx="0" cy="0" r="1" gradientTransform="matrix(83.8357 -11.8089 11.7638 83.3104 -39.1985 18.5228)" gradientUnits="userSpaceOnUse">
<stop offset="0.0390761" stop-color="#00533A"/>
<stop offset="0.556673" stop-color="#08475D"/>
<stop offset="0.666519" stop-color="#1E5161"/>
<stop offset="0.766969" stop-color="#416166"/>
<stop offset="0.846972" stop-color="#6E786E"/>
<stop offset="0.912899" stop-color="#AFB078"/>
<stop offset="0.997941" stop-color="#D3C07E"/>
</radialGradient>
</defs>
</svg>
