<svg width="588" height="140" viewBox="0 0 588 140" fill="none" xmlns="http://www.w3.org/2000/svg">
<path d="M0.500122 139.5C8.67377 134.326 28.5163 138.393 41.3297 135.442C51.5131 132.341 57.0702 130.97 65.0388 121.294C70.6002 111.868 75.7978 103.25 74.1104 92.3723C72.698 83.2666 45.5565 74.5578 38.7054 85.5621C35.1768 86.8259 35.8651 95.0505 36.8956 97.3757C39.3368 102.884 42.3887 106.953 48.7501 110.502C63.1063 118.511 93.7449 123.561 112.796 110.502C231.286 29.2802 328.949 59.084 364.255 63.2476C387.965 66.0436 407.383 91.29 404.323 104.248C400.618 119.936 381.047 127.259 366.558 127.259C348.641 127.259 330.001 116.125 330.001 97.3027C330.001 75.8741 357.347 66.3932 383.392 63.2476C403.882 60.773 416.147 61.1164 436.421 64.5602C490.906 73.8158 563 63.2476 587.5 0.5" stroke="#5CCD6A" stroke-linecap="round" stroke-dasharray="8 8"/>
</svg>
